<?xml version="1.0" encoding="UTF-8"?>
<svg id="Capa_1" xmlns="http://www.w3.org/2000/svg" viewBox="0 0 128.47 125.53">
  <defs>
    <style>
      .cls-1 {
        fill: #fdefd1;
      }

      .cls-1, .cls-2 {
        fill-rule: evenodd;
      }

      .cls-2 {
        fill: #0d2d36;
      }
    </style>
  </defs>
  <g id="Capa_x5F_1">
    <path class="cls-2" d="M37.94,42.63c6.29.41,13.25,6.42,19.67,2.81,3.76-2.12,5.91-9.83,7.61-14.29l1.04-2.02c1.1,1.32,2.95,6.9,3.78,9.04,1.47,3.77,2.03,5.8,5.04,7.39,6.24,3.3,14.38-2.78,19.48-2.91-2.06,5.6-9.18,12.15-7.17,18.41,1.22,3.79,3.76,4.95,6.55,6.78,1.36.89,2.49,1.73,3.83,2.67.64.45,1.15.82,1.94,1.32.9.57,1.28.7,1.81,1.53-13.57,2.09-21.12,1.15-20.2,13.89.16,2.18.9,8.83.55,10.52-.68-.47-1.24-.87-1.9-1.48-.62-.58-.96-1.09-1.59-1.65l-3.54-3.27c-6.24-6.06-11.08-6.51-17.21,0-1.19,1.26-6.06,5.82-7.2,6.38.14-6.86,2.65-15.38-1.55-19.79-3.14-3.29-12.32-3.79-17.93-4.59.77-1.29,2.63-2.09,3.93-3,4.53-3.16,9.03-5.05,10.27-9.56,1.69-6.16-4.46-11.5-7.23-18.18h0ZM22.55,17.98c-1.76,1.09-1.03,2.3.18,3.57l5.77,6.07c3.59,4.05,4.56.52,4.52-.14-.06-1.2-2.24-2.98-3.95-4.87-1.1-1.22-1.62-1.74-2.94-2.97-.88-.82-1.76-2.79-3.58-1.66ZM64.32,3.78v9.47c0,3.78,3.87,3.79,3.87,0V3.78c0-3.7-3.87-3.76-3.87,0ZM24.2,92.56c.77-1.44-.58-3.25-2.52-2.62-.44.14-9.93,6.11-10.3,6.97-.76,1.75.88,3.11,2.54,2.52.74-.26,9.96-6.26,10.28-6.87h0ZM121.31,96.22c.44-2.96-1.51-3.12-5.88-5.48-2.57-1.39-6.19-4.13-7.32-1.86-1.24,2.49,1.96,3.28,5.66,5.31,5.09,2.79,5.18,3.69,7.54,2.04ZM97.51,28.03c2.61.21,3.61-2.08,6.33-5.31,1.37-1.63,5.65-5.94,2.21-6.92-1.97-.56-3.66,2.66-5.91,5.28-3.76,4.39-4.5,4.79-2.62,6.95ZM48.4,111.22c-1.09,1.49-4.07,10.8-4.23,11.94-.23,1.66,1.07,2.87,2.71,2.16,1.29-.55,2.55-6.02,3.14-7.87.8-2.55,3.01-6.93-1.62-6.24ZM128.15,55.09c.83-1.44-.08-3.07-1.8-3.11-.49,0-11.75,1.7-12.47,2.98-.83,1.47.31,2.87,1.79,2.89.91.01,3.19-.55,4.22-.75,1.62-.31,7.86-1.3,8.27-2.02h0ZM17.02,59.03c.83-3.56-3.4-3.07-6.39-3.44-2.21-.27-7.46-1.72-8.18.42-1.2,3.58,5.7,3.14,11.04,3.84,2.07.27,2.46.39,3.53-.82ZM87.15,124.38c1.67.63,2.93-.54,2.53-2.45-.33-1.58-2.4-6.08-3.13-7.92-.55-1.38-.89-3.15-2.1-3.55-1.74-.56-2.89.8-2.47,2.52.45,1.81,2.32,5.8,3.11,7.81.52,1.31.89,3.15,2.06,3.59h0ZM75.22,55.45c-2.47-1.22-2.53-.29-5.95,3.13l-12.73,12.73c-.7.68-2.28,1.88-1.16,3.42,1.77,2.42,5.02-1.94,5.9-2.82l12.73-12.72c1.11-1.09,1.85-1.62,1.21-3.73ZM61.15,51.87c3.31-.99,4.29,3.91,1.49,4.58-3.33.8-4.36-3.72-1.49-4.58ZM60.39,48.08c-8.26,2.26-4.9,14.15,3.13,12.15,2.82-.7,5.5-3.94,4.42-7.82-.8-2.87-3.94-5.32-7.55-4.33h0ZM71.54,70.53c3.19-1,4.34,3.8,1.45,4.56-3.11.82-4.41-3.63-1.45-4.56ZM70.78,66.74c-8.2,2.35-4.95,14.05,3.11,12.15,2.92-.69,5.53-3.91,4.45-7.86-.75-2.73-3.93-5.33-7.56-4.29h0ZM34.09,43.44c1,4.26,8.45,12.09,7.34,16.31-.98,3.68-9.95,7.33-13.22,10.74-2.98,3.11-1.01,6,2.71,6.79,3.25.69,6.95,1.1,10.29,1.61,8.61,1.3,6.13,5.14,5.41,17.23-.25,4.23,1.94,7.48,6,5,1.26-.77,2.09-1.81,3.18-2.74,3.17-2.69,7.23-7.67,10.19-7.8,1.91-.08,3.15.83,4.12,1.68,2.06,1.8,7.33,7.2,9.39,8.65,3.56,2.49,6.42.14,6.39-3.9-.03-3.55-.55-7.82-.82-11.41-.57-7.53,5.75-6.51,15.51-8.15,3.38-.57,7.03-2.81,4.28-6.33-2.45-3.14-12.11-7.62-13.5-10.47-2.15-4.4,4.27-10.18,6.68-16.19,1.67-4.16-1.1-6.53-5.21-5.5-2.98.75-6.1,1.85-9.08,2.75-3.89,1.17-6.51,1.99-8.58-1.29-2.93-4.64-4.07-14.86-8.41-15.55-3.44-.55-4.55,3.32-5.63,6.06-3.42,8.71-3.57,13.52-11.28,11.15-3.7-1.14-17.78-7.18-15.78,1.36h0Z"/>
  </g>
  <g id="Capa_x5F_1-2" data-name="Capa_x5F_1">
    <path class="cls-1" d="M35.63,41.65c6.29.41,13.25,6.42,19.67,2.81,3.76-2.12,5.91-9.83,7.61-14.29l1.04-2.02c1.1,1.32,2.95,6.9,3.78,9.04,1.47,3.77,2.03,5.8,5.04,7.39,6.24,3.3,14.38-2.78,19.48-2.91-2.06,5.6-9.18,12.15-7.17,18.41,1.22,3.79,3.76,4.95,6.55,6.78,1.36.89,2.49,1.73,3.83,2.67.64.45,1.15.82,1.94,1.32.9.57,1.28.7,1.81,1.53-13.57,2.09-21.12,1.15-20.2,13.89.16,2.18.9,8.83.55,10.52-.68-.47-1.24-.87-1.9-1.48-.62-.58-.96-1.09-1.59-1.65l-3.54-3.27c-6.24-6.06-11.08-6.51-17.21,0-1.19,1.26-6.06,5.82-7.2,6.38.14-6.86,2.65-15.38-1.55-19.79-3.14-3.29-12.32-3.79-17.93-4.59.77-1.29,2.63-2.09,3.93-3,4.53-3.16,9.03-5.05,10.27-9.56,1.69-6.16-4.46-11.5-7.23-18.18h0ZM20.24,17c-1.76,1.09-1.03,2.3.18,3.57l5.77,6.07c3.59,4.05,4.56.52,4.52-.14-.06-1.2-2.24-2.98-3.95-4.87-1.1-1.22-1.62-1.74-2.94-2.97-.88-.82-1.76-2.79-3.58-1.66ZM62.01,2.8v9.47c0,3.78,3.87,3.79,3.87,0V2.8c0-3.7-3.87-3.76-3.87,0ZM21.89,91.58c.77-1.44-.58-3.25-2.52-2.62-.44.14-9.93,6.11-10.3,6.97-.76,1.75.88,3.11,2.54,2.52.74-.26,9.96-6.26,10.28-6.87h0ZM119,95.24c.44-2.96-1.51-3.12-5.88-5.48-2.57-1.39-6.19-4.13-7.32-1.86-1.24,2.49,1.96,3.28,5.66,5.31,5.09,2.79,5.18,3.69,7.54,2.04ZM95.2,27.05c2.61.21,3.61-2.08,6.33-5.31,1.37-1.63,5.65-5.94,2.21-6.92-1.97-.56-3.66,2.66-5.91,5.28-3.76,4.39-4.5,4.79-2.62,6.95ZM46.09,110.24c-1.09,1.49-4.07,10.8-4.23,11.94-.23,1.66,1.07,2.87,2.71,2.16,1.29-.55,2.55-6.02,3.14-7.87.8-2.55,3.01-6.93-1.62-6.24ZM125.84,54.11c.83-1.44-.08-3.07-1.8-3.11-.49,0-11.75,1.7-12.47,2.98-.83,1.47.31,2.87,1.79,2.89.91.01,3.19-.55,4.22-.75,1.62-.31,7.86-1.3,8.27-2.02h0ZM14.71,58.05c.83-3.56-3.4-3.07-6.39-3.44-2.21-.27-7.46-1.72-8.18.42-1.2,3.58,5.7,3.14,11.04,3.84,2.07.27,2.46.39,3.53-.82ZM84.84,123.4c1.67.63,2.93-.54,2.53-2.45-.33-1.58-2.4-6.08-3.13-7.92-.55-1.38-.89-3.15-2.1-3.55-1.74-.56-2.89.8-2.47,2.52.45,1.81,2.32,5.8,3.11,7.81.52,1.31.89,3.15,2.06,3.59h0ZM72.91,54.47c-2.47-1.22-2.53-.29-5.95,3.13l-12.73,12.73c-.7.68-2.28,1.88-1.16,3.42,1.77,2.42,5.02-1.94,5.9-2.82l12.73-12.72c1.11-1.09,1.85-1.62,1.21-3.73ZM58.84,50.89c3.31-.99,4.29,3.91,1.49,4.58-3.33.8-4.36-3.72-1.49-4.58ZM58.08,47.1c-8.26,2.26-4.9,14.15,3.13,12.15,2.82-.7,5.5-3.94,4.42-7.82-.8-2.87-3.94-5.32-7.55-4.33h0ZM69.23,69.55c3.19-1,4.34,3.8,1.45,4.56-3.11.82-4.41-3.63-1.45-4.56ZM68.47,65.76c-8.2,2.35-4.95,14.05,3.11,12.15,2.92-.69,5.53-3.91,4.45-7.86-.75-2.73-3.93-5.33-7.56-4.29h0ZM31.78,42.46c1,4.26,8.45,12.09,7.34,16.31-.98,3.68-9.95,7.33-13.22,10.74-2.98,3.11-1.01,6,2.71,6.79,3.25.69,6.95,1.1,10.29,1.61,8.61,1.3,6.13,5.14,5.41,17.23-.25,4.23,1.94,7.48,6,5,1.26-.77,2.09-1.81,3.18-2.74,3.17-2.69,7.23-7.67,10.19-7.8,1.91-.08,3.15.83,4.12,1.68,2.06,1.8,7.33,7.2,9.39,8.65,3.56,2.49,6.42.14,6.39-3.9-.03-3.55-.55-7.82-.82-11.41-.57-7.53,5.75-6.51,15.51-8.15,3.38-.57,7.03-2.81,4.28-6.33-2.45-3.14-12.11-7.62-13.5-10.47-2.15-4.4,4.27-10.18,6.68-16.19,1.67-4.16-1.1-6.53-5.21-5.5-2.98.75-6.1,1.85-9.08,2.75-3.89,1.17-6.51,1.99-8.58-1.29-2.93-4.64-4.07-14.86-8.41-15.55-3.44-.55-4.55,3.32-5.63,6.06-3.42,8.71-3.57,13.52-11.28,11.15-3.7-1.14-17.78-7.18-15.78,1.36h0Z"/>
  </g>
</svg>