<?xml version="1.0" encoding="UTF-8"?>
<svg id="Capa_1" xmlns="http://www.w3.org/2000/svg" xmlns:xlink="http://www.w3.org/1999/xlink" viewBox="0 0 194.83 194.83">
  <defs>
    <style>
      .cls-1 {
        fill-rule: evenodd;
      }

      .cls-1, .cls-2 {
        fill: #f37c35;
      }

      .cls-3 {
        stroke: #0d2d36;
        stroke-miterlimit: 10;
        stroke-width: 8.5px;
      }

      .cls-3, .cls-4 {
        fill: none;
      }

      .cls-5 {
        fill: #0d2d36;
      }

      .cls-6 {
        clip-path: url(#clippath);
      }
    </style>
    <clipPath id="clippath">
      <circle class="cls-4" cx="97.42" cy="97.42" r="86.75"/>
    </clipPath>
  </defs>
  <g id="Capa_x5F_1">
    <circle class="cls-4" cx="97.42" cy="97.42" r="97.42"/>
    <g class="cls-6">
      <g id="_2539509027008">
        <path class="cls-1" d="M145.73,112.7c18.1,11.65,30.09,31.98,30.09,55.11,0,36.17-29.32,65.49-65.49,65.49s-65.49-29.32-65.49-65.49c0-23.13,11.99-43.45,30.09-55.11,7.88,7.99,20.8,13.19,35.4,13.19s27.52-5.21,35.4-13.19Z"/>
        <path class="cls-5" d="M135.11,101.52c9.81,6.31,17.93,15.03,23.55,25.31,5.42,9.93,8.5,21.3,8.5,33.37,0,19.26-7.81,36.69-20.43,49.32-12.62,12.62-30.06,20.43-49.32,20.43s-36.69-7.81-49.32-20.43c-12.62-12.62-20.43-30.06-20.43-49.32,0-12.07,3.08-23.44,8.5-33.37,5.62-10.29,13.74-19,23.55-25.31l2.89-1.86,2.43,2.46c3.58,3.63,8.38,6.64,13.97,8.72,5.47,2.04,11.73,3.19,18.4,3.19s12.93-1.15,18.4-3.19c5.6-2.09,10.39-5.09,13.97-8.72l2.43-2.46,2.89,1.86h0ZM151.22,130.89c-4.4-8.07-10.58-15.04-18-20.39-4.03,3.41-8.93,6.23-14.44,8.28-6.44,2.4-13.71,3.76-21.36,3.76s-14.92-1.36-21.36-3.76c-5.51-2.05-10.41-4.88-14.44-8.28-7.42,5.35-13.6,12.32-18,20.39-4.74,8.69-7.44,18.67-7.44,29.31,0,16.91,6.85,32.22,17.94,43.3s26.39,17.94,43.3,17.94,32.22-6.85,43.3-17.94,17.94-26.39,17.94-43.3c0-10.64-2.7-20.63-7.44-29.31h0Z"/>
      </g>
    </g>
    <path class="cls-3" d="M97.42,10.67c47.91,0,86.75,38.84,86.75,86.75s-38.84,86.75-86.75,86.75S10.67,145.33,10.67,97.42,49.51,10.67,97.42,10.67h0Z"/>
    <circle class="cls-2" cx="110.33" cy="75.6" r="30.86"/>
    <path class="cls-5" d="M97.42,32.89c9.69,0,18.47,3.93,24.82,10.28,6.35,6.35,10.28,15.13,10.28,24.82s-3.93,18.47-10.28,24.82c-6.35,6.35-15.13,10.28-24.82,10.28s-18.47-3.93-24.82-10.28c-6.35-6.35-10.28-15.13-10.28-24.82s3.93-18.47,10.28-24.82c6.35-6.35,15.13-10.28,24.82-10.28ZM116.23,49.19c-4.81-4.81-11.47-7.79-18.81-7.79s-14,2.98-18.81,7.79c-4.81,4.81-7.79,11.47-7.79,18.81s2.98,14,7.79,18.81c4.81,4.81,11.47,7.79,18.81,7.79s14-2.98,18.81-7.79c4.81-4.81,7.79-11.47,7.79-18.81s-2.98-14-7.79-18.81Z"/>
  </g>
</svg>